<?xml version="1.0" encoding="UTF-8"?>
<svg id="Layer_2" data-name="Layer 2" xmlns="http://www.w3.org/2000/svg" xmlns:xlink="http://www.w3.org/1999/xlink" viewBox="0 0 139.23 147.94">
  <defs>
    <style>
      .cls-1 {
        fill: url(#linear-gradient);
      }

      .cls-2 {
        fill: #fff;
      }
    </style>
    <linearGradient id="linear-gradient" x1="17.95" y1="104.43" x2="336.31" y2="-83.22" gradientUnits="userSpaceOnUse">
      <stop offset="0" stop-color="#00143a"/>
      <stop offset=".49" stop-color="#1b76ff"/>
      <stop offset=".71" stop-color="#1b3d9c"/>
      <stop offset=".94" stop-color="#1b0030"/>
    </linearGradient>
  </defs>
  <g id="Layer_2-2" data-name="Layer 2">
    <g>
      <path class="cls-1" d="M70.17,147.94c-3.39.06-6.79-.39-9.93-1.33-17.19-5.18-44.41-21.42-52.2-30.26-2.42-2.73-3.89-5.71-3.89-5.71-1.52-3.09-2.06-5.77-2.32-7.29C.52,96.03-.1,85.02.01,73.98c-.11-11.05.5-22.06,1.8-29.37.27-1.52.81-4.2,2.32-7.29,0,0,1.48-2.97,3.89-5.71C15.82,22.77,43.05,6.53,60.23,1.35c5.95-1.79,12.78-1.8,18.76,0,17.19,5.18,44.41,21.42,52.2,30.26,2.41,2.73,3.89,5.71,3.89,5.71,1.53,3.09,2.07,5.77,2.33,7.29,1.3,7.31,1.91,18.32,1.8,29.37.11,11.05-.5,22.06-1.8,29.37-.27,1.52-.81,4.2-2.33,7.29,0,0-1.48,2.97-3.89,5.71-7.79,8.84-35.02,25.08-52.21,30.26-2.8.84-5.81,1.28-8.83,1.33Z"/>
      <g>
        <path class="cls-2" d="M47.87,74.35c.55.43.98.97,1.3,1.61.32.64.48,1.33.48,2.05,0,.92-.23,1.75-.7,2.48-.47.74-1.15,1.32-2.04,1.74s-1.95.64-3.16.64h-6.76v-18.12h6.5c1.23,0,2.28.2,3.15.61.87.41,1.52.96,1.95,1.65.43.69.65,1.47.65,2.34,0,1.07-.29,1.96-.87,2.66-.58.7-1.35,1.21-2.3,1.52.66.1,1.26.37,1.81.81ZM39.35,72.58h3.98c1.11,0,1.97-.26,2.57-.78.61-.52.91-1.24.91-2.16s-.3-1.64-.91-2.16c-.61-.52-1.48-.78-2.63-.78h-3.93v5.88ZM46.29,80.1c.66-.55.99-1.33.99-2.31s-.35-1.8-1.04-2.38c-.69-.58-1.62-.87-2.78-.87h-4.11v6.4h4.19c1.18,0,2.1-.28,2.76-.83Z"/>
        <path class="cls-2" d="M52.92,71.87c.59-1.1,1.4-1.95,2.43-2.56,1.03-.61,2.18-.91,3.45-.91s2.33.27,3.25.81,1.6,1.21,2.05,2.03v-2.6h2.39v14.25h-2.39v-2.65c-.47.83-1.17,1.52-2.09,2.07-.93.55-2.01.82-3.24.82s-2.41-.31-3.43-.94-1.83-1.5-2.42-2.63c-.59-1.13-.88-2.41-.88-3.85s.29-2.73.88-3.83ZM63.45,72.92c-.43-.8-1.02-1.41-1.75-1.83-.74-.42-1.55-.64-2.43-.64s-1.69.21-2.42.62c-.73.42-1.31,1.02-1.74,1.82-.43.8-.65,1.73-.65,2.81s.22,2.04.65,2.85c.43.81,1.01,1.42,1.74,1.85.73.43,1.53.64,2.42.64s1.69-.21,2.43-.64c.74-.42,1.32-1.04,1.75-1.85.43-.81.65-1.75.65-2.82s-.22-2.01-.65-2.81Z"/>
        <path class="cls-2" d="M72.61,82.55c-.87-.37-1.55-.89-2.05-1.56s-.78-1.43-.83-2.3h2.44c.07.71.4,1.29,1,1.74.6.45,1.38.68,2.35.68.9,0,1.61-.2,2.13-.6.52-.4.78-.9.78-1.51s-.28-1.09-.83-1.39c-.55-.3-1.41-.6-2.57-.9-1.06-.28-1.92-.56-2.59-.84-.67-.29-1.24-.71-1.72-1.27-.48-.56-.71-1.3-.71-2.22,0-.73.22-1.4.65-2,.43-.61,1.05-1.09,1.85-1.44.8-.35,1.71-.53,2.73-.53,1.58,0,2.85.4,3.82,1.2.97.8,1.49,1.89,1.56,3.28h-2.37c-.05-.75-.35-1.34-.9-1.79-.55-.45-1.28-.68-2.2-.68-.85,0-1.53.18-2.03.55-.5.36-.75.84-.75,1.43,0,.47.15.85.46,1.16s.68.55,1.14.73c.46.18,1.1.39,1.91.61,1.02.28,1.85.55,2.5.82.64.27,1.19.67,1.65,1.21.46.54.7,1.24.71,2.11,0,.78-.22,1.48-.65,2.11s-1.04,1.11-1.83,1.47c-.79.35-1.69.53-2.72.53-1.09,0-2.07-.19-2.94-.56Z"/>
        <path class="cls-2" d="M84.15,65.85c-.31-.31-.47-.69-.47-1.14s.16-.83.47-1.14.69-.47,1.14-.47.8.16,1.11.47c.3.31.46.69.46,1.14s-.15.83-.46,1.14c-.3.31-.67.47-1.11.47s-.83-.16-1.14-.47ZM86.44,68.63v14.25h-2.37v-14.25h2.37Z"/>
        <path class="cls-2" d="M90.47,71.87c.59-1.1,1.41-1.95,2.46-2.56,1.05-.61,2.25-.91,3.6-.91,1.75,0,3.19.43,4.33,1.27,1.14.85,1.89,2.03,2.25,3.54h-2.55c-.24-.87-.71-1.55-1.42-2.05s-1.57-.75-2.61-.75c-1.35,0-2.44.46-3.28,1.39-.83.93-1.25,2.24-1.25,3.94s.42,3.04,1.25,3.98c.83.94,1.92,1.4,3.28,1.4,1.04,0,1.91-.24,2.6-.73s1.17-1.18,1.43-2.08h2.55c-.38,1.46-1.14,2.62-2.29,3.5-1.14.88-2.57,1.31-4.29,1.31-1.35,0-2.55-.3-3.6-.91s-1.87-1.46-2.46-2.57c-.59-1.11-.88-2.41-.88-3.9s.29-2.76.88-3.86Z"/>
      </g>
    </g>
  </g>
</svg>