<?xml version="1.0" encoding="UTF-8"?>
<svg id="Layer_2" data-name="Layer 2" xmlns="http://www.w3.org/2000/svg" xmlns:xlink="http://www.w3.org/1999/xlink" viewBox="0 0 139.23 147.94">
  <defs>
    <style>
      .cls-1 {
        fill: url(#linear-gradient);
      }

      .cls-2 {
        fill: #fff;
      }
    </style>
    <linearGradient id="linear-gradient" x1="17.95" y1="104.43" x2="336.31" y2="-83.22" gradientUnits="userSpaceOnUse">
      <stop offset="0" stop-color="#00143a"/>
      <stop offset=".49" stop-color="#1b76ff"/>
      <stop offset=".71" stop-color="#1b3d9c"/>
      <stop offset=".94" stop-color="#1b0030"/>
    </linearGradient>
  </defs>
  <g id="Layer_2-2" data-name="Layer 2">
    <g>
      <path class="cls-1" d="M70.17,147.94c-3.39.06-6.79-.39-9.93-1.33-17.19-5.18-44.41-21.42-52.2-30.26-2.42-2.73-3.89-5.71-3.89-5.71-1.52-3.09-2.06-5.77-2.32-7.29C.52,96.03-.1,85.02.01,73.98c-.11-11.05.5-22.06,1.8-29.37.27-1.52.81-4.2,2.32-7.29,0,0,1.48-2.97,3.89-5.71C15.82,22.77,43.05,6.53,60.23,1.35c5.95-1.79,12.78-1.8,18.76,0,17.19,5.18,44.41,21.42,52.2,30.26,2.41,2.73,3.89,5.71,3.89,5.71,1.53,3.09,2.07,5.77,2.33,7.29,1.3,7.31,1.91,18.32,1.8,29.37.11,11.05-.5,22.06-1.8,29.37-.27,1.52-.81,4.2-2.33,7.29,0,0-1.48,2.97-3.89,5.71-7.79,8.84-35.02,25.08-52.21,30.26-2.8.84-5.81,1.28-8.83,1.33Z"/>
      <g>
        <path class="cls-2" d="M56.36,73.82c-1.03,1-2.6,1.49-4.72,1.49h-3.48v7.57h-2.37v-18.12h5.85c2.05,0,3.6.49,4.67,1.48,1.07.99,1.6,2.26,1.6,3.82s-.52,2.76-1.55,3.76ZM54.55,72.5c.62-.57.94-1.39.94-2.44,0-2.24-1.28-3.35-3.85-3.35h-3.48v6.66h3.48c1.32,0,2.29-.29,2.91-.86Z"/>
        <path class="cls-2" d="M63.21,63.64v19.24h-2.37v-19.24h2.37Z"/>
        <path class="cls-2" d="M79.87,68.63v14.25h-2.37v-2.11c-.45.73-1.08,1.3-1.89,1.7-.81.41-1.69.61-2.67.61-1.11,0-2.11-.23-2.99-.69-.88-.46-1.58-1.15-2.09-2.07-.51-.92-.77-2.04-.77-3.35v-8.35h2.34v8.03c0,1.4.36,2.48,1.07,3.24.71.75,1.68,1.13,2.91,1.13s2.26-.39,2.99-1.17c.73-.78,1.09-1.92,1.09-3.41v-7.83h2.37Z"/>
        <path class="cls-2" d="M85.98,82.55c-.87-.37-1.55-.89-2.05-1.56s-.78-1.43-.83-2.3h2.44c.07.71.4,1.29,1,1.74.6.45,1.38.68,2.35.68.9,0,1.61-.2,2.13-.6.52-.4.78-.9.78-1.51s-.28-1.09-.83-1.39c-.55-.3-1.41-.6-2.57-.9-1.06-.28-1.92-.56-2.59-.84-.67-.29-1.24-.71-1.72-1.27-.48-.56-.71-1.3-.71-2.22,0-.73.22-1.4.65-2,.43-.61,1.05-1.09,1.85-1.44.8-.35,1.71-.53,2.73-.53,1.58,0,2.85.4,3.82,1.2.97.8,1.49,1.89,1.56,3.28h-2.37c-.05-.75-.35-1.34-.9-1.79-.55-.45-1.28-.68-2.2-.68-.85,0-1.53.18-2.03.55-.5.36-.75.84-.75,1.43,0,.47.15.85.46,1.16s.68.55,1.14.73c.46.18,1.1.39,1.91.61,1.02.28,1.85.55,2.5.82.64.27,1.19.67,1.65,1.21.46.54.7,1.24.71,2.11,0,.78-.22,1.48-.65,2.11s-1.04,1.11-1.83,1.47c-.79.35-1.69.53-2.72.53-1.09,0-2.07-.19-2.94-.56Z"/>
      </g>
    </g>
  </g>
</svg>