<?xml version="1.0" encoding="UTF-8"?>
<svg id="Layer_2" data-name="Layer 2" xmlns="http://www.w3.org/2000/svg" xmlns:xlink="http://www.w3.org/1999/xlink" viewBox="0 0 139.23 147.94">
  <defs>
    <style>
      .cls-1 {
        fill: url(#linear-gradient);
      }

      .cls-2 {
        fill: #fff;
      }
    </style>
    <linearGradient id="linear-gradient" x1="17.95" y1="104.43" x2="336.31" y2="-83.22" gradientUnits="userSpaceOnUse">
      <stop offset="0" stop-color="#00143a"/>
      <stop offset=".49" stop-color="#1b76ff"/>
      <stop offset=".71" stop-color="#1b3d9c"/>
      <stop offset=".94" stop-color="#1b0030"/>
    </linearGradient>
  </defs>
  <g id="Layer_2-2" data-name="Layer 2">
    <g>
      <path class="cls-1" d="M70.17,147.94c-3.39.06-6.79-.39-9.93-1.33-17.19-5.18-44.41-21.42-52.2-30.26-2.42-2.73-3.89-5.71-3.89-5.71-1.52-3.09-2.06-5.77-2.32-7.29C.52,96.03-.1,85.02.01,73.98c-.11-11.05.5-22.06,1.8-29.37.27-1.52.81-4.2,2.32-7.29,0,0,1.48-2.97,3.89-5.71C15.82,22.77,43.05,6.53,60.23,1.35c5.95-1.79,12.78-1.8,18.76,0,17.19,5.18,44.41,21.42,52.2,30.26,2.41,2.73,3.89,5.71,3.89,5.71,1.53,3.09,2.07,5.77,2.33,7.29,1.3,7.31,1.91,18.32,1.8,29.37.11,11.05-.5,22.06-1.8,29.37-.27,1.52-.81,4.2-2.33,7.29,0,0-1.48,2.97-3.89,5.71-7.79,8.84-35.02,25.08-52.21,30.26-2.8.84-5.81,1.28-8.83,1.33Z"/>
      <g>
        <path class="cls-2" d="M23.45,73.82c-1.03,1-2.6,1.49-4.72,1.49h-3.48v7.57h-2.37v-18.12h5.85c2.05,0,3.6.49,4.67,1.48,1.07.99,1.6,2.26,1.6,3.82s-.52,2.76-1.55,3.76ZM21.65,72.5c.62-.57.94-1.39.94-2.44,0-2.24-1.28-3.35-3.85-3.35h-3.48v6.66h3.48c1.32,0,2.29-.29,2.91-.86Z"/>
        <path class="cls-2" d="M32.08,69.05c.77-.45,1.71-.68,2.82-.68v2.44h-.62c-2.65,0-3.98,1.44-3.98,4.32v7.75h-2.37v-14.25h2.37v2.31c.42-.81,1.01-1.45,1.78-1.9Z"/>
        <path class="cls-2" d="M50.56,76.64h-11.39c.09,1.4.57,2.5,1.44,3.29.88.79,1.94,1.18,3.19,1.18,1.02,0,1.88-.24,2.56-.72.68-.48,1.17-1.11,1.44-1.91h2.55c-.38,1.37-1.14,2.48-2.29,3.34-1.14.86-2.57,1.29-4.26,1.29-1.35,0-2.56-.3-3.63-.91-1.07-.61-1.9-1.47-2.51-2.59-.61-1.12-.91-2.41-.91-3.89s.29-2.76.88-3.87c.59-1.11,1.42-1.96,2.48-2.56,1.07-.6,2.29-.9,3.68-.9s2.55.29,3.59.88c1.04.59,1.84,1.4,2.41,2.43.56,1.03.84,2.2.84,3.5,0,.45-.03.93-.08,1.43ZM47.59,72.39c-.4-.65-.94-1.14-1.62-1.48s-1.44-.51-2.28-.51c-1.2,0-2.21.38-3.05,1.14s-1.32,1.82-1.44,3.17h9c0-.9-.2-1.68-.6-2.33Z"/>
        <path class="cls-2" d="M73.85,69.06c.87.46,1.55,1.15,2.05,2.07.5.92.75,2.04.75,3.35v8.4h-2.34v-8.06c0-1.42-.35-2.51-1.05-3.26-.7-.75-1.65-1.13-2.85-1.13s-2.21.39-2.94,1.18c-.73.79-1.09,1.93-1.09,3.42v7.85h-2.34v-8.06c0-1.42-.35-2.51-1.05-3.26s-1.65-1.13-2.85-1.13-2.21.39-2.94,1.18c-.73.79-1.09,1.93-1.09,3.42v7.85h-2.37v-14.25h2.37v2.05c.47-.75,1.1-1.32,1.88-1.72.79-.4,1.66-.6,2.61-.6,1.2,0,2.25.27,3.17.81.92.54,1.6,1.33,2.05,2.37.4-1,1.06-1.79,1.98-2.34.92-.55,1.94-.83,3.07-.83s2.1.23,2.96.69Z"/>
        <path class="cls-2" d="M80.61,65.85c-.31-.31-.47-.69-.47-1.14s.16-.83.47-1.14.69-.47,1.14-.47.8.16,1.11.47c.3.31.46.69.46,1.14s-.15.83-.46,1.14c-.3.31-.67.47-1.11.47s-.83-.16-1.14-.47ZM82.9,68.63v14.25h-2.37v-14.25h2.37Z"/>
        <path class="cls-2" d="M99.57,68.63v14.25h-2.37v-2.11c-.45.73-1.08,1.3-1.89,1.7-.81.41-1.69.61-2.67.61-1.11,0-2.11-.23-2.99-.69-.88-.46-1.58-1.15-2.09-2.07-.51-.92-.77-2.04-.77-3.35v-8.35h2.34v8.03c0,1.4.36,2.48,1.07,3.24.71.75,1.68,1.13,2.91,1.13s2.26-.39,2.99-1.17c.73-.78,1.09-1.92,1.09-3.41v-7.83h2.37Z"/>
        <path class="cls-2" d="M123.67,69.06c.87.46,1.55,1.15,2.05,2.07.5.92.75,2.04.75,3.35v8.4h-2.34v-8.06c0-1.42-.35-2.51-1.05-3.26-.7-.75-1.65-1.13-2.85-1.13s-2.21.39-2.94,1.18c-.73.79-1.09,1.93-1.09,3.42v7.85h-2.34v-8.06c0-1.42-.35-2.51-1.05-3.26s-1.65-1.13-2.85-1.13-2.21.39-2.94,1.18c-.73.79-1.09,1.93-1.09,3.42v7.85h-2.37v-14.25h2.37v2.05c.47-.75,1.1-1.32,1.88-1.72.79-.4,1.66-.6,2.61-.6,1.2,0,2.25.27,3.17.81.92.54,1.6,1.33,2.05,2.37.4-1,1.06-1.79,1.98-2.34.92-.55,1.94-.83,3.07-.83s2.1.23,2.96.69Z"/>
      </g>
    </g>
  </g>
</svg>