<?xml version="1.0" encoding="UTF-8"?>
<svg id="Layer_2" data-name="Layer 2" xmlns="http://www.w3.org/2000/svg" xmlns:xlink="http://www.w3.org/1999/xlink" viewBox="0 0 120.85 128.41">
  <defs>
    <style>
      .cls-1 {
        fill: url(#linear-gradient);
      }

      .cls-2 {
        fill: #fff;
      }
    </style>
    <linearGradient id="linear-gradient" x1="0" y1="64.21" x2="371.23" y2="64.21" gradientUnits="userSpaceOnUse">
      <stop offset="0" stop-color="#00143a"/>
      <stop offset=".49" stop-color="#1b76ff"/>
      <stop offset=".71" stop-color="#1b3d9c"/>
      <stop offset=".94" stop-color="#1b0030"/>
    </linearGradient>
  </defs>
  <g id="Layer_2-2" data-name="Layer 2">
    <path class="cls-1" d="M60.9,128.41c-2.94.05-5.9-.34-8.62-1.16-14.92-4.5-38.55-18.6-45.31-26.27-2.1-2.37-3.38-4.95-3.38-4.95-1.32-2.68-1.79-5.01-2.02-6.33C.45,83.36-.08,73.8.01,64.21c-.09-9.59.44-19.15,1.56-25.49.23-1.32.7-3.65,2.02-6.33,0,0,1.28-2.58,3.38-4.95C13.73,19.77,37.37,5.67,52.28,1.17c5.16-1.55,11.1-1.56,16.28,0,14.92,4.5,38.55,18.6,45.31,26.27,2.09,2.37,3.37,4.95,3.37,4.95,1.32,2.68,1.79,5.01,2.02,6.33,1.12,6.35,1.66,15.9,1.56,25.49.09,9.59-.44,19.15-1.56,25.49-.23,1.32-.7,3.65-2.02,6.33,0,0-1.28,2.58-3.37,4.95-6.77,7.67-30.4,21.77-45.31,26.27-2.43.73-5.04,1.11-7.66,1.16Z"/>
    <path class="cls-2" d="M20.84,71.65l10.5-25.71c.49-1.05.97-2.8,1.99-2.8.78,0,1.24.99,1.62,1.93l.02.02,7.47,26.57h-21.6ZM54.84,89.35c.8,0,1.53-.05,2.18-.14,4.65-.64,6.2-3.42,7.21-7.23l7.28-26.61c.21-.64.41-1.27.83-1.27s.62.64.83,1.27l7.28,26.61c1.16,4.35,3.01,7.37,9.4,7.37,5.85,0,8.04-2.33,9.75-8.5l11.67-41.22h-12.49l-8.73,33.78c-.27.91-.62,1.47-1.04,1.47-.33,0-.75-.76-.88-1.19l-8.04-29.42c-1.04-3.65-4.05-5.19-7.76-5.19-3.98,0-6.8,1.69-7.76,5.19l-8.11,29.42c-.13.43-.48,1.19-.89,1.19-.48,0-.75-.56-.96-1.47l-7.25-28.06c-.87-3.37-3.91-5.72-7.38-5.72h-6.68c-2.95,0-4.25,2.53-5.35,5.21l-18.4,44.52h3.98l5.83-14.33h23.99l1.64,5.83c1.53,5.45,3.55,7.93,8.06,8.41l1.77.1Z"/>
  </g>
</svg>