<?xml version="1.0" encoding="UTF-8"?>
<svg id="Layer_2" data-name="Layer 2" xmlns="http://www.w3.org/2000/svg" viewBox="0 0 291.78 44.83">
  <g id="Layer_2-2" data-name="Layer 2">
    <g>
      <path d="M16.78,4.63c1-2.38,2.19-4.63,4.88-4.63s3.88,2.32,4.88,4.63l16.78,39.69h-3.63l-5.32-12.77H8.95l-5.32,12.77H0L16.78,4.63ZM10.27,28.55h22.79L23.48,5.63c-.44-.94-.88-2.5-1.82-2.5s-1.38,1.57-1.82,2.5l-9.58,22.91Z"/>
      <path d="M44.82,41.38h19.03c3.94,0,4.76-2.07,4.76-5.38,0-3.94-2.44-4.51-9.14-6.07l-5.76-1.31c-5.51-1.25-9.39-3.13-9.39-9.45,0-5.2,3.32-8.01,8.33-8.01h17.22v2.94h-17.22c-3.76,0-4.95,1.57-4.95,5.07,0,4.57,2.32,5.45,7.14,6.57l6.01,1.38c7.45,1.69,11.14,2.75,11.14,8.89,0,5.13-1.75,8.33-8.14,8.33h-19.03v-2.94Z"/>
      <path d="M75.12,41.38h19.03c3.94,0,4.76-2.07,4.76-5.38,0-3.94-2.44-4.51-9.14-6.07l-5.76-1.31c-5.51-1.25-9.39-3.13-9.39-9.45,0-5.2,3.32-8.01,8.33-8.01h17.22v2.94h-17.22c-3.76,0-4.95,1.57-4.95,5.07,0,4.57,2.32,5.45,7.14,6.57l6.01,1.38c7.45,1.69,11.14,2.75,11.14,8.89,0,5.13-1.75,8.33-8.14,8.33h-19.03v-2.94Z"/>
      <path d="M106.67,5.38V.5h3.51v4.88h-3.51ZM106.8,11.14h3.26v33.18h-3.26V11.14Z"/>
      <path d="M115.06,41.38h19.03c3.94,0,4.76-2.07,4.76-5.38,0-3.94-2.44-4.51-9.14-6.07l-5.76-1.31c-5.51-1.25-9.39-3.13-9.39-9.45,0-5.2,3.32-8.01,8.33-8.01h17.22v2.94h-17.22c-3.76,0-4.95,1.57-4.95,5.07,0,4.57,2.32,5.45,7.14,6.57l6.01,1.38c7.45,1.69,11.14,2.75,11.14,8.89,0,5.13-1.75,8.33-8.14,8.33h-19.03v-2.94Z"/>
      <path d="M156.81,44.33c-9.02,0-9.02-5.26-9.02-10.52V14.09h-5.2v-2.94h5.2V.5h3.26v10.64h8.89v2.94h-8.89v20.66c0,5.2,1.38,6.64,6.51,6.64h2.38v2.94h-3.13Z"/>
      <path d="M187.12,4.63c.88-3.13,3.44-4.63,7.07-4.63,3.38,0,6.14,1.38,7.07,4.63l7.33,26.23c.12.38.5,1.06.81,1.06.38,0,.69-.5.94-1.31l7.95-30.11h11.39l-10.64,36.75c-1.56,5.51-3.57,7.58-8.89,7.58-5.82,0-7.51-2.69-8.58-6.57l-6.64-23.73c-.19-.56-.38-1.13-.75-1.13s-.56.56-.75,1.13l-6.64,23.73c-1.06,3.88-2.75,6.57-8.58,6.57-5.26,0-7.39-2.13-8.95-7.58L158.69.5h11.39l7.95,30.11c.19.81.44,1.31.88,1.31.38,0,.69-.69.81-1.06l7.39-26.23Z"/>
      <path d="M242.77,44.33c-10.64,0-12.65-4.51-12.65-16.72,0-14.09,3.76-16.84,16.9-16.84,10.96,0,16.9,1.75,16.9,13.34,0,3.76-1.13,6.89-5.2,6.89h-18.72c0,4.07,1.32,6.32,6.64,6.32h16.15v7.01h-20.03ZM252.16,24.23c1.75,0,1.82-1.19,1.82-2,0-3.38-3.82-4.44-6.95-4.44-4.7,0-7.01,1.56-7.01,6.45h12.15Z"/>
      <path d="M267.62.5h9.77v43.83h-9.77V.5Z"/>
      <path d="M282.02.5h9.77v43.83h-9.77V.5Z"/>
    </g>
  </g>
</svg>