<svg width="51" height="51" viewBox="0 0 51 51" fill="none" xmlns="http://www.w3.org/2000/svg">
<path fill-rule="evenodd" clip-rule="evenodd" d="M27.786 0.963884C27.4885 0.658813 27.1331 0.416364 26.7404 0.250823C26.3478 0.0852829 25.9261 0 25.5 0C25.0739 0 24.6522 0.0852829 24.2596 0.250823C23.867 0.416364 23.5115 0.658813 23.214 0.963884L21.177 3.05512C20.7761 3.46705 20.2714 3.7631 19.7162 3.91202C19.161 4.06094 18.5759 4.0572 18.0226 3.90119L15.213 3.1094C14.8029 2.99399 14.3739 2.96183 13.9512 3.01481C13.5284 3.06778 13.1206 3.20482 12.7517 3.41785C12.3827 3.63089 12.0601 3.9156 11.8029 4.25523C11.5457 4.59485 11.3591 4.98252 11.254 5.39539L10.5325 8.22415C10.391 8.78101 10.1019 9.28938 9.69565 9.69565C9.28938 10.1019 8.78101 10.391 8.22415 10.5325L5.39539 11.2509C4.98252 11.3559 4.59485 11.5425 4.25523 11.7998C3.9156 12.057 3.63089 12.3795 3.41785 12.7485C3.20482 13.1174 3.06778 13.5252 3.01481 13.948C2.96183 14.3707 2.99399 14.7997 3.1094 15.2098L3.90119 18.0226C4.0572 18.5759 4.06094 19.161 3.91202 19.7162C3.7631 20.2714 3.46705 20.7761 3.05512 21.177L0.963884 23.214C0.658813 23.5115 0.416364 23.867 0.250823 24.2596C0.0852829 24.6522 0 25.0739 0 25.5C0 25.9261 0.0852829 26.3478 0.250823 26.7404C0.416364 27.1331 0.658813 27.4885 0.963884 27.786L3.05512 29.8261C3.46649 30.2268 3.7622 30.7309 3.9111 31.2855C4.06 31.8401 4.05658 32.4246 3.90119 32.9774L3.1094 35.787C2.99399 36.1971 2.96183 36.6261 3.01481 37.0488C3.06778 37.4716 3.20482 37.8794 3.41785 38.2483C3.63089 38.6173 3.9156 38.9399 4.25523 39.1971C4.59485 39.4543 4.98252 39.6409 5.39539 39.746L8.22415 40.4675C8.78101 40.609 9.28938 40.8981 9.69565 41.3044C10.1019 41.7106 10.391 42.219 10.5325 42.7759L11.2509 45.6046C11.3556 46.0178 11.5419 46.4058 11.799 46.7458C12.0561 47.0857 12.3786 47.3708 12.7476 47.5842C13.1165 47.7975 13.5245 47.9348 13.9474 47.988C14.3703 48.0412 14.7995 48.0092 15.2098 47.8938L18.0226 47.102C18.5756 46.9456 19.1605 46.9414 19.7157 47.0897C20.2709 47.2381 20.7758 47.5335 21.177 47.9449L23.214 50.0361C23.5115 50.3412 23.867 50.5836 24.2596 50.7492C24.6522 50.9147 25.0739 51 25.5 51C25.9261 51 26.3478 50.9147 26.7404 50.7492C27.1331 50.5836 27.4885 50.3412 27.786 50.0361L29.8261 47.9449C30.2271 47.5341 30.7314 47.239 31.286 47.0906C31.8406 46.9423 32.4249 46.9462 32.9774 47.102L35.787 47.8938C36.1973 48.0092 36.6265 48.0412 37.0494 47.988C37.4723 47.9348 37.8803 47.7975 38.2493 47.5842C38.6182 47.3708 38.9408 47.0857 39.1978 46.7458C39.4549 46.4058 39.6412 46.0178 39.746 45.6046L40.4675 42.7759C40.609 42.219 40.8981 41.7106 41.3044 41.3044C41.7106 40.8981 42.219 40.609 42.7759 40.4675L45.6046 39.7491C46.0178 39.6444 46.4058 39.4581 46.7458 39.201C47.0857 38.944 47.3708 38.6214 47.5842 38.2524C47.7975 37.8835 47.9348 37.4755 47.988 37.0526C48.0412 36.6297 48.0092 36.2005 47.8938 35.7902L47.102 32.9806C46.9456 32.4276 46.9414 31.8426 47.0897 31.2875C47.2381 30.7323 47.5335 30.2274 47.9449 29.8261L50.0361 27.786C50.3412 27.4885 50.5836 27.1331 50.7492 26.7404C50.9147 26.3478 51 25.9261 51 25.5C51 25.0739 50.9147 24.6522 50.7492 24.2596C50.5836 23.867 50.3412 23.5115 50.0361 23.214L47.9449 21.177C47.5335 20.7758 47.2381 20.2709 47.0897 19.7157C46.9414 19.1605 46.9456 18.5756 47.102 18.0226L47.8938 15.213C48.0092 14.8027 48.0412 14.3735 47.988 13.9506C47.9348 13.5277 47.7975 13.1197 47.5842 12.7507C47.3708 12.3818 47.0857 12.0592 46.7458 11.8022C46.4058 11.5451 46.0178 11.3588 45.6046 11.254L42.7759 10.5325C42.219 10.391 41.7106 10.1019 41.3044 9.69565C40.8981 9.28938 40.609 8.78101 40.4675 8.22415L39.7491 5.39539C39.6441 4.98252 39.4575 4.59485 39.2002 4.25523C38.943 3.9156 38.6205 3.63089 38.2515 3.41785C37.8826 3.20482 37.4748 3.06778 37.052 3.01481C36.6293 2.96183 36.2003 2.99399 35.7902 3.1094L32.9806 3.90119C32.4268 4.05781 31.8411 4.06187 31.2853 3.91293C30.7294 3.764 30.2242 3.46761 29.823 3.05512L27.786 0.963884ZM37.5462 20.0404C38.0034 19.5993 38.2667 18.9945 38.2781 18.3593C38.2894 17.724 38.048 17.1102 37.6068 16.653C37.1657 16.1957 36.5609 15.9324 35.9256 15.921C35.2904 15.9097 34.6766 16.1511 34.2193 16.5923L21.0206 29.3377L16.8158 25.1392C16.3657 24.6904 15.7558 24.4388 15.1202 24.4397C14.4847 24.4406 13.8755 24.694 13.4267 25.144C12.9779 25.5941 12.7263 26.204 12.7272 26.8395C12.7281 27.4751 12.9814 28.0843 13.4315 28.5331L19.3029 34.3886C19.7463 34.8316 20.3458 35.0831 20.9726 35.0891C21.5994 35.095 22.2035 34.855 22.6553 34.4205L37.5462 20.0404Z" fill="#882AD2"/>
</svg>
