<svg width="56" height="51" viewBox="0 0 56 51" fill="none" xmlns="http://www.w3.org/2000/svg">
<path d="M12.4444 0C15.7449 0 18.9102 1.19404 21.244 3.31946C23.5778 5.44487 24.8889 8.32755 24.8889 11.3333C24.8889 16.6033 20.9378 21.0517 15.5556 22.2983V28.7017C16.7067 28.9567 17.7956 29.3817 18.7911 29.92L32.8533 17.1133C31.7333 15.4133 31.1111 13.4583 31.1111 11.3333C31.1111 8.32755 32.4222 5.44487 34.756 3.31946C37.0898 1.19404 40.2551 0 43.5556 0C46.856 0 50.0213 1.19404 52.3551 3.31946C54.6889 5.44487 56 8.32755 56 11.3333C56 14.3391 54.6889 17.2218 52.3551 19.3472C50.0213 21.4726 46.856 22.6667 43.5556 22.6667C41.2533 22.6667 39.1067 22.1 37.3333 21.1083L23.1778 34C24.2667 35.615 24.8889 37.57 24.8889 39.6667C24.8889 42.6725 23.5778 45.5551 21.244 47.6805C18.9102 49.806 15.7449 51 12.4444 51C9.14397 51 5.97868 49.806 3.64489 47.6805C1.31111 45.5551 0 42.6725 0 39.6667C0 34.3967 3.95111 29.9483 9.33333 28.7017V22.2983C3.95111 21.0517 0 16.6033 0 11.3333C0 8.32755 1.31111 5.44487 3.64489 3.31946C5.97868 1.19404 9.14397 0 12.4444 0ZM43.5556 28.3333C46.856 28.3333 50.0213 29.5274 52.3551 31.6528C54.6889 33.7782 56 36.6609 56 39.6667C56 42.6725 54.6889 45.5551 52.3551 47.6805C50.0213 49.806 46.856 51 43.5556 51C40.2551 51 37.0898 49.806 34.756 47.6805C32.4222 45.5551 31.1111 42.6725 31.1111 39.6667C31.1111 36.6609 32.4222 33.7782 34.756 31.6528C37.0898 29.5274 40.2551 28.3333 43.5556 28.3333ZM43.5556 34C41.9053 34 40.3227 34.597 39.1558 35.6597C37.9889 36.7224 37.3333 38.1638 37.3333 39.6667C37.3333 41.1696 37.9889 42.6109 39.1558 43.6736C40.3227 44.7363 41.9053 45.3333 43.5556 45.3333C45.2058 45.3333 46.7884 44.7363 47.9553 43.6736C49.1222 42.6109 49.7778 41.1696 49.7778 39.6667C49.7778 38.1638 49.1222 36.7224 47.9553 35.6597C46.7884 34.597 45.2058 34 43.5556 34Z" fill="#882AD2"/>
</svg>
