<svg width="51" height="51" viewBox="0 0 51 51" fill="none" xmlns="http://www.w3.org/2000/svg">
<path d="M3.41357 3.41473C7.25545 -0.427048 13.0396 -0.750745 18.8407 1.0807C21.1576 1.8339 23.3893 2.82744 25.4994 4.04509C27.7795 2.7503 30.0142 1.75933 32.1581 1.0807C37.962 -0.753585 43.7433 -0.427048 47.5852 3.41473C51.4271 7.25651 51.7536 13.0405 49.9193 18.8415C49.1661 21.1583 48.1725 23.39 46.9548 25.5C48.2496 27.7801 49.2406 30.0147 49.9193 32.1585C51.7536 37.9595 51.4271 43.7435 47.5852 47.5853C43.7433 51.427 37.9592 51.7536 32.1581 49.9193C29.8412 49.1661 27.6095 48.1726 25.4994 46.9549C23.2192 48.2497 20.9845 49.2407 18.8407 49.9193C13.0396 51.7507 7.25545 51.4242 3.41357 47.5853C-0.428303 43.7435 -0.752009 37.9595 1.07948 32.1585C1.75813 30.0119 2.74912 27.7801 4.04394 25.5C2.82626 23.39 1.8327 21.1583 1.07948 18.8415C-0.752009 13.0405 -0.425464 7.25651 3.41357 3.41473ZM7.64162 30.9205C7.19863 31.8793 6.81551 32.8646 6.49445 33.8707C4.97247 38.6893 5.72778 41.8666 7.4315 43.5703C9.13237 45.274 12.3098 46.0264 17.1285 44.5045C18.075 44.2054 19.0593 43.823 20.0816 43.3573C17.7441 41.5723 15.5299 39.6313 13.4541 37.5478C11.3696 35.4721 9.42765 33.258 7.64162 30.9205ZM43.36 30.9205C41.574 33.258 39.632 35.4721 37.5475 37.5478C35.4718 39.6323 33.2576 41.5742 30.92 43.3602C31.9404 43.8239 32.9238 44.2054 33.8703 44.5045C38.6918 46.0264 41.8664 45.2711 43.5701 43.5703C45.2738 41.8666 46.0291 38.6921 44.5071 33.8707C44.1862 32.8636 43.8031 31.8773 43.36 30.9177V30.9205ZM25.4994 21.2408C24.3697 21.2408 23.2864 21.6896 22.4876 22.4883C21.6888 23.2871 21.2401 24.3704 21.2401 25.5C21.2401 26.6296 21.6888 27.7129 22.4876 28.5117C23.2864 29.3104 24.3697 29.7592 25.4994 29.7592C26.629 29.7592 27.7124 29.3104 28.5111 28.5117C29.3099 27.7129 29.7587 26.6296 29.7587 25.5C29.7587 24.3704 29.3099 23.2871 28.5111 22.4883C27.7124 21.6896 26.629 21.2408 25.4994 21.2408ZM33.8703 6.49554C32.8631 6.81648 31.8769 7.19959 30.9172 7.64268C33.2556 9.42765 35.4707 11.3686 37.5475 13.4522C39.632 15.5279 41.574 17.742 43.36 20.0795C43.8257 19.0592 44.2071 18.0758 44.5043 17.1293C46.0291 12.3079 45.2738 9.13339 43.5701 7.42972C41.8664 5.72605 38.6918 4.97359 33.8703 6.49554ZM7.42866 7.43256C5.72494 9.13339 4.97247 12.3079 6.49445 17.1293C6.79355 18.0758 7.17594 19.0601 7.64162 20.0823C9.31694 17.8675 11.2563 15.6499 13.4541 13.4522C15.529 11.3688 17.7423 9.42785 20.0787 7.64268C19.12 7.1997 18.1346 6.81659 17.1285 6.49554C12.3098 4.97359 9.13237 5.72889 7.42866 7.43256Z" fill="#882AD2"/>
</svg>
