<svg width="60" height="51" viewBox="0 0 60 51" fill="none" xmlns="http://www.w3.org/2000/svg">
<path fill-rule="evenodd" clip-rule="evenodd" d="M20.886 46.407C12.057 39.6421 0 28.4671 0 17.9012C0 0.249292 16.5 -6.34167 30 7.29025C43.5 -6.34167 60 0.249292 60 17.9012C60 28.4671 47.94 39.6421 39.114 46.407C35.118 49.467 33.12 51 30 51C26.88 51 24.882 49.47 20.886 46.407ZM43.5 9.75024C44.0967 9.75024 44.669 9.98729 45.091 10.4092C45.5129 10.8312 45.75 11.4035 45.75 12.0002V15.7502H49.5C50.0967 15.7502 50.669 15.9873 51.091 16.4092C51.5129 16.8312 51.75 17.4035 51.75 18.0002C51.75 18.5969 51.5129 19.1692 51.091 19.5912C50.669 20.0131 50.0967 20.2502 49.5 20.2502H45.75V24.0002C45.75 24.5969 45.5129 25.1692 45.091 25.5911C44.669 26.0131 44.0967 26.2501 43.5 26.2501C42.9033 26.2501 42.331 26.0131 41.909 25.5911C41.4871 25.1692 41.25 24.5969 41.25 24.0002V20.2502H37.5C36.9033 20.2502 36.331 20.0131 35.909 19.5912C35.4871 19.1692 35.25 18.5969 35.25 18.0002C35.25 17.4035 35.4871 16.8312 35.909 16.4092C36.331 15.9873 36.9033 15.7502 37.5 15.7502H41.25V12.0002C41.25 11.4035 41.4871 10.8312 41.909 10.4092C42.331 9.98729 42.9033 9.75024 43.5 9.75024Z" fill="#882AD2"/>
</svg>
